<svg xmlns="http://www.w3.org/2000/svg" width="874" height="412" fill="none"><path fill="#89898E" fill-rule="evenodd" d="M558.375 340.593c-11.658-22.023-34.551 13.82-34.551 13.82l57.009 34.551s-10.801-26.349-22.458-48.371Zm-107.67 23.427 19.439-32.823c-18.568 9.494-62.627 10.365-62.627 10.365l43.188 22.458ZM179.37 113.569l13.413 12.318c15.885-10.127 20.267-33.961 20.267-33.961-4.649-2.191-24.368-5.745-24.368-5.745l-9.312 27.388ZM27.684 5.324l29.115 12.992 5.534-14.438S42.36-5.744 27.683 5.323Zm92.163 35.787c11.615 3.876 37.641 11.756 37.641 11.756l2.977-13.877-35.478-11.264-5.14 13.385Z" clip-rule="evenodd" opacity=".2"/><path stroke="#fff" stroke-width="23.877" d="M690.383 284.946c30.969 14.186 44.635 39.888 60.464 43.301 13.357 2.893 36.011-13.132 53.09-14.312 16.7-1.165 28.273 16.84 19.228 29.312-11.91 16.419-29.762 22.374-29.762 22.374s-60.463 25.407-74.874 30.056c-14.634 4.719-21.685 5.955-30.056 1.714-8.736-4.424-10.618-6.882-22.065-9.298-15.21-3.216-47.486 20.183-84.972 8.722-37.5-11.475-69.242-41.686-69.242-41.686s-11.84-9.452-18.764-1.98c-5.421 5.843-4.761 20.73-13.722 28.511-8.596 7.458-18.399 5.113-27.753-.561-9.354-5.689-78.638-39.86-116.026-70.113-37.374-30.253-69.382-56.953-70.997-62.346-2.248-7.528 2.471-30.239-5.815-40.716-7.809-9.874-111.026-104.818-111.026-104.818s-5.014-4.986-10.281-7.88c-8.23-4.522-80.211-33.188-80.211-33.188S41.714 57.15 46.391 44.664c5.478-14.607 22.781-6.138 22.781-6.138s49.298 16.672 60.843 21.433c10.983 4.523 96.377 19.312 130.801 32.81 27.43 10.758 80.886 27.443 119.959 40.716 7.331 2.486 164.228 69.747 164.228 69.747s8.54 2.753 8.497 10.267c-.028 4.382-1.727 8.961 5.759 12.753 7.486 3.792 118.217 52.795 131.124 58.708v-.014Z"/><path stroke="#000" stroke-width="18.259" d="M690.383 284.946c30.969 14.186 44.635 39.888 60.464 43.301 13.357 2.893 36.011-13.132 53.09-14.312 16.7-1.165 28.273 16.84 19.228 29.312-11.91 16.419-29.762 22.374-29.762 22.374s-60.463 25.407-74.874 30.056c-14.634 4.719-21.685 5.955-30.056 1.714-8.736-4.424-10.618-6.882-22.065-9.298-15.21-3.216-47.486 20.183-84.972 8.722-37.5-11.475-69.242-41.686-69.242-41.686s-11.84-9.452-18.764-1.98c-5.421 5.843-4.761 20.73-13.722 28.511-8.596 7.458-18.399 5.113-27.753-.561-9.354-5.689-78.638-39.86-116.026-70.113-37.374-30.253-69.382-56.953-70.997-62.346-2.248-7.528 2.471-30.239-5.815-40.716-7.809-9.874-111.026-104.818-111.026-104.818s-5.014-4.986-10.281-7.88c-8.23-4.522-80.211-33.188-80.211-33.188S41.714 57.15 46.391 44.664c5.478-14.607 22.781-6.138 22.781-6.138s40.688 13.961 52.233 18.708c10.984 4.523 104.987 22.023 139.425 35.534 27.43 10.759 80.886 27.444 119.959 40.717 7.331 2.486 164.228 69.747 164.228 69.747s8.54 2.753 8.498 10.267c-.029 4.382-1.728 8.961 5.758 12.753s118.217 52.795 131.124 58.708l-.014-.014Z"/><path stroke="#000" stroke-width="21.489" d="M690.383 284.946c30.969 14.186 44.635 39.888 60.464 43.301 13.357 2.893 36.011-13.132 53.09-14.312 16.7-1.165 28.273 16.84 19.228 29.312-11.91 16.419-29.762 22.374-29.762 22.374s-60.463 25.407-74.874 30.056c-14.634 4.719-21.685 5.955-30.056 1.714-8.736-4.424-10.618-6.882-22.065-9.298-15.21-3.216-47.486 20.183-84.972 8.722-37.5-11.475-69.242-41.686-69.242-41.686s-11.84-9.452-18.764-1.98c-5.421 5.843-4.761 20.73-13.722 28.511-8.596 7.458-18.399 5.113-27.753-.561-9.354-5.689-78.638-39.86-116.026-70.113-37.374-30.253-69.382-56.953-70.997-62.346-2.248-7.528 2.471-30.239-5.815-40.716-7.809-9.874-111.026-104.818-111.026-104.818s-5.014-4.986-10.281-7.88c-8.23-4.522-80.211-33.188-80.211-33.188S41.714 57.15 46.391 44.664c5.478-14.607 22.781-6.138 22.781-6.138s49.298 16.672 60.843 21.433c10.983 4.523 96.377 19.312 130.801 32.81 27.43 10.758 80.886 27.443 119.959 40.716 7.331 2.486 164.228 69.747 164.228 69.747s8.54 2.753 8.497 10.267c-.028 4.382-1.727 8.961 5.759 12.753 7.486 3.792 118.217 52.795 131.124 58.708v-.014Z"/><path stroke="#000" stroke-width="21.489" d="M690.383 284.946c30.969 14.186 44.635 39.888 60.464 43.301 13.357 2.893 36.011-13.132 53.09-14.312 16.7-1.165 28.273 16.84 19.228 29.312-11.91 16.419-29.762 22.374-29.762 22.374s-60.463 25.407-74.874 30.056c-14.634 4.719-21.685 5.955-30.056 1.714-8.736-4.424-10.618-6.882-22.065-9.298-15.21-3.216-47.486 20.183-84.972 8.722-37.5-11.475-69.242-41.686-69.242-41.686s-11.84-9.452-18.764-1.98c-5.421 5.843-4.761 20.73-13.722 28.511-8.596 7.458-18.399 5.113-27.753-.561-9.354-5.689-78.638-39.86-116.026-70.113-37.374-30.253-69.382-56.953-70.997-62.346-2.248-7.528 2.471-30.239-5.815-40.716-7.809-9.874-111.026-104.818-111.026-104.818s-5.014-4.986-10.281-7.88c-8.23-4.522-80.211-33.188-80.211-33.188S41.714 57.15 46.391 44.664c5.478-14.607 22.781-6.138 22.781-6.138s40.688 13.961 52.233 18.708c10.984 4.523 104.987 22.023 139.425 35.534 27.43 10.759 80.886 27.444 119.959 40.717 7.331 2.486 164.228 69.747 164.228 69.747s8.54 2.753 8.498 10.267c-.029 4.382-1.728 8.961 5.758 12.753s118.217 52.795 131.124 58.708l-.014-.014Z"/><path stroke="#fff" stroke-width="2.528" d="M690.383 284.946c30.969 14.186 44.635 39.888 60.464 43.301 13.357 2.893 36.011-13.132 53.09-14.312 16.7-1.165 28.273 16.84 19.228 29.312-11.91 16.419-29.762 22.374-29.762 22.374s-60.463 25.407-74.874 30.056c-14.634 4.719-21.685 5.955-30.056 1.714-8.736-4.424-10.618-6.882-22.065-9.298-15.21-3.216-47.486 20.183-84.972 8.722-37.5-11.475-69.242-41.686-69.242-41.686s-11.84-9.452-18.764-1.98c-5.421 5.843-4.761 20.73-13.722 28.511-8.596 7.458-18.399 5.113-27.753-.561-9.354-5.689-78.638-39.86-116.026-70.113-37.374-30.253-69.382-56.953-70.997-62.346-2.248-7.528 2.471-30.239-5.815-40.716-7.809-9.874-111.026-104.818-111.026-104.818s-5.014-4.986-10.281-7.88c-8.23-4.522-80.211-33.188-80.211-33.188S41.714 57.15 46.391 44.664c5.478-14.607 22.781-6.138 22.781-6.138s49.298 16.672 60.843 21.433c10.983 4.523 96.377 19.312 130.801 32.81 27.43 10.758 80.886 27.443 119.959 40.716 7.331 2.486 164.228 69.747 164.228 69.747s8.54 2.753 8.497 10.267c-.028 4.382-1.727 8.961 5.759 12.753 7.486 3.792 118.217 52.795 131.124 58.708v-.014Z"/><path stroke="#fff" stroke-width="2.528" d="M690.383 284.946c30.969 14.186 44.635 39.888 60.464 43.301 13.357 2.893 36.011-13.132 53.09-14.312 16.7-1.165 28.273 16.84 19.228 29.312-11.91 16.419-29.762 22.374-29.762 22.374s-60.463 25.407-74.874 30.056c-14.634 4.719-21.685 5.955-30.056 1.714-8.736-4.424-10.618-6.882-22.065-9.298-15.21-3.216-47.486 20.183-84.972 8.722-37.5-11.475-69.242-41.686-69.242-41.686s-11.84-9.452-18.764-1.98c-5.421 5.843-4.761 20.73-13.722 28.511-8.596 7.458-18.399 5.113-27.753-.561-9.354-5.689-78.638-39.86-116.026-70.113-37.374-30.253-69.382-56.953-70.997-62.346-2.248-7.528 2.471-30.239-5.815-40.716-7.809-9.874-111.026-104.818-111.026-104.818s-5.014-4.986-10.281-7.88c-8.23-4.522-80.211-33.188-80.211-33.188S41.714 57.15 46.391 44.664c5.478-14.607 22.781-6.138 22.781-6.138s40.688 13.961 52.233 18.708c10.984 4.523 104.987 22.023 139.425 35.534 27.43 10.759 80.886 27.444 119.959 40.717 7.331 2.486 164.228 69.747 164.228 69.747s8.54 2.753 8.498 10.267c-.029 4.382-1.728 8.961 5.758 12.753s118.217 52.795 131.124 58.708l-.014-.014Z"/><path fill="#000" d="m724.469 287.418 6.432-2.247c.295-.098.506-.281.646-.562.141-.281.155-.576.043-.87l-2.051-6.545 2.079-.661 2.022 6.545c.295.857.225 1.7-.168 2.515-.408.814-1.04 1.362-1.882 1.629l-6.405 2.261-.702-2.051-.014-.014ZM711.352 280.901l6.432-2.247c.295-.098.506-.281.646-.562.141-.28.155-.575.042-.87l-2.05-6.545 2.078-.66 2.023 6.545c.295.856.225 1.699-.169 2.514a3.05 3.05 0 0 1-1.882 1.629l-6.404 2.261-.702-2.05-.014-.015ZM717.91 284.16l6.433-2.247a1.07 1.07 0 0 0 .646-.562c.14-.281.154-.576.042-.871l-2.051-6.545 2.079-.66 2.023 6.545c.295.857.224 1.699-.169 2.514a3.046 3.046 0 0 1-1.882 1.629l-6.405 2.262-.702-2.051-.014-.014ZM688.593 260.116l-2.169 4.364 4.326 2.151 2.17-4.365-4.327-2.15ZM690.751 266.64l-2.169 4.364 4.327 2.151 2.169-4.364-4.327-2.151ZM695.105 257.898l-2.169 4.364 4.326 2.15 2.169-4.364-4.326-2.15ZM682.103 262.35l-2.169 4.364 4.326 2.15 2.169-4.364-4.326-2.15ZM686.456 253.593l-2.169 4.364 4.327 2.151 2.169-4.364-4.327-2.151ZM697.247 264.422l-2.169 4.364 4.327 2.151 2.169-4.365-4.327-2.15ZM699.41 270.94l-2.17 4.364 4.327 2.15 2.169-4.364-4.326-2.15ZM703.745 262.204l-2.169 4.364 4.327 2.15 2.169-4.364-4.327-2.15Z"/><path fill="#7D7D7D" d="M791.859 280.059v-6.686h4.326v1.18h-2.963v1.559h2.373v1.166h-2.373v1.601h2.963v1.18h-4.326ZM801.115 280.059h-3.806v-6.686h1.362v5.492h2.444v1.194ZM801.943 280.059v-6.686h1.363v6.686h-1.363ZM804.162 274.581v-1.194h4.916v1.194h-1.77v5.492h-1.362v-5.492h-1.784ZM809.936 280.059v-6.686h4.325v1.18h-2.963v1.559h2.373v1.166h-2.373v1.601h2.963v1.18h-4.325ZM796.69 288.949a8.715 8.715 0 0 1-1.882.225c-.562 0-.997-.07-1.334-.211a1.644 1.644 0 0 1-.787-.66 3.018 3.018 0 0 1-.393-1.067 9.15 9.15 0 0 1-.112-1.531c0-1.292.182-2.191.547-2.697.366-.505 1.04-.758 2.009-.758.562 0 1.222.084 1.952.267l-.042 1.081c-.646-.098-1.194-.154-1.615-.154-.422 0-.731.056-.913.168-.183.112-.323.337-.407.646-.085.323-.127.871-.127 1.643 0 .773.084 1.307.267 1.602.183.295.534.449 1.081.449.548 0 1.11-.042 1.728-.14l.028 1.109v.028ZM801.593 289.048h-3.806v-6.686h1.363v5.492h2.443v1.194ZM803.67 286.828c0 .787.394 1.166 1.194 1.166.801 0 1.194-.393 1.194-1.166v-4.452h1.362v4.424c0 .815-.21 1.419-.632 1.812-.421.379-1.053.576-1.91.576s-1.489-.197-1.91-.576c-.421-.379-.632-.983-.632-1.812v-4.424h1.362v4.452h-.028ZM808.811 282.362h2.626c.703 0 1.222.141 1.559.422.351.28.52.73.52 1.348 0 .379-.056.674-.169.885-.112.21-.294.407-.575.59.295.126.519.309.66.533.14.225.21.562.21.983 0 .646-.196 1.138-.575 1.447-.38.309-.913.478-1.602.478h-2.668v-6.686h.014Zm2.556 1.166h-1.194v1.587h1.208c.506 0 .773-.267.773-.801 0-.533-.253-.8-.773-.8l-.014.014Zm.028 2.739h-1.236v1.629h1.236c.295 0 .52-.056.646-.183.141-.112.211-.337.211-.646 0-.533-.295-.8-.871-.8h.014ZM750.188 247.938h1.432l-1.559 6.685h-2.514l-1.559-6.685h1.419l1.166 5.505h.435l1.166-5.505h.014ZM752.49 254.623v-6.685h1.363v6.685h-1.363ZM757.757 252.685h-1.096v1.952h-1.362v-6.685h2.458c1.587 0 2.373.772 2.373 2.317 0 .787-.196 1.377-.604 1.798-.407.421-.997.618-1.769.618Zm-1.096-1.166h1.096c.674 0 1.011-.421 1.011-1.264 0-.407-.084-.716-.253-.885-.168-.182-.421-.266-.772-.266h-1.096v2.415h.014ZM763.264 254.623v-6.685h4.269v1.18h-2.907v1.966H767v1.18h-2.374v2.359h-1.362ZM767.716 254.623l1.502-6.685h2.571l1.502 6.685h-1.362l-.267-1.208h-2.345l-.267 1.208h-1.362.028Zm2.556-5.562-.674 3.175h1.826l-.675-3.175h-.477ZM774.189 254.623v-6.685h2.29l1.615 5.505h.098v-5.505h1.363v6.685h-2.234l-1.671-5.505h-.098v5.505h-1.363ZM780.68 250.368l.463-2.43h1.391l-.829 2.43h-1.025ZM785.552 249.005c-.716 0-1.067.239-1.067.703 0 .21.084.365.267.477.182.112.589.267 1.25.478.646.21 1.109.449 1.376.716.267.267.393.674.393 1.222 0 .702-.21 1.236-.646 1.587-.421.365-.983.534-1.671.534-.506 0-1.138-.085-1.882-.239l-.351-.07.14-1.054c.871.113 1.545.183 2.009.183.702 0 1.039-.295 1.039-.871a.581.581 0 0 0-.239-.492c-.168-.112-.478-.252-.955-.379-.758-.21-1.292-.477-1.601-.772-.309-.295-.464-.717-.464-1.25 0-.674.197-1.166.604-1.489.408-.323.969-.492 1.672-.492.491 0 1.095.071 1.854.197l.351.07-.113 1.068c-.927-.099-1.573-.155-1.952-.155l-.014.028ZM742.266 263.612v-6.685h4.325v1.179h-2.963v1.559h2.374v1.166h-2.374v1.601h2.963v1.18h-4.325ZM751.521 263.612h-3.806v-6.685h1.362v5.491h2.444v1.194ZM752.35 263.612v-6.685h1.362v6.685h-1.362ZM754.568 258.135v-1.194h4.916v1.194h-1.77v5.491h-1.362v-5.491h-1.784ZM760.328 263.612v-6.685h4.326v1.179h-2.964v1.559h2.374v1.166h-2.374v1.601h2.964v1.18h-4.326ZM770.005 257.994c-.716 0-1.067.239-1.067.702a.52.52 0 0 0 .267.478c.182.112.59.267 1.25.477.646.211 1.109.45 1.376.717.267.267.393.674.393 1.222 0 .702-.21 1.236-.646 1.587-.421.365-.983.533-1.671.533-.506 0-1.138-.084-1.882-.238l-.351-.071.14-1.053c.871.112 1.545.183 2.009.183.702 0 1.039-.295 1.039-.871a.581.581 0 0 0-.239-.492c-.168-.112-.477-.253-.955-.379-.758-.211-1.292-.478-1.601-.772-.309-.295-.463-.717-.463-1.236 0-.675.196-1.166.603-1.489.408-.323.97-.492 1.672-.492.491 0 1.095.07 1.854.197l.351.07-.113 1.068c-.926-.113-1.572-.155-1.952-.155l-.014.014ZM774.598 261.393c0 .786.393 1.166 1.194 1.166.8 0 1.194-.394 1.194-1.166v-4.452h1.362v4.424c0 .814-.211 1.418-.632 1.812-.421.379-1.053.576-1.91.576s-1.489-.197-1.91-.576c-.422-.38-.632-.983-.632-1.812v-4.424h1.362v4.452h-.028ZM779.725 263.612v-6.685h1.362v6.685h-1.362ZM781.93 258.135v-1.194h4.915v1.194h-1.769v5.491h-1.363v-5.491h-1.783ZM787.701 263.612v-6.685h4.326v1.179h-2.963v1.559h2.373v1.166h-2.373v1.601h2.963v1.18h-4.326ZM680.341 354.806c-.716 0-1.067.239-1.067.703 0 .21.084.365.267.477.182.112.589.267 1.25.478.646.21 1.109.449 1.376.716.267.267.393.674.393 1.222 0 .702-.21 1.236-.646 1.587-.421.365-.983.534-1.671.534-.506 0-1.138-.085-1.882-.239l-.351-.07.14-1.054c.871.113 1.545.183 2.009.183.702 0 1.039-.295 1.039-.871a.581.581 0 0 0-.239-.492c-.168-.112-.477-.252-.955-.379-.758-.21-1.292-.477-1.601-.772-.309-.295-.464-.717-.464-1.236 0-.674.197-1.166.604-1.489.408-.323.969-.492 1.672-.492.491 0 1.095.071 1.854.197l.351.07-.113 1.068c-.926-.113-1.573-.155-1.952-.155l-.014.014ZM683.643 360.424v-6.685h4.325v1.18h-2.963v1.559h2.374v1.165h-2.374v1.601h2.963v1.18h-4.325ZM689.076 360.424v-6.685h2.29l1.615 5.505h.098v-5.505h1.362v6.685h-2.233l-1.671-5.505h-.098v5.505h-1.363ZM695.902 360.424v-6.685h2.29l1.615 5.505h.098v-5.505h1.363v6.685h-2.234l-1.671-5.505h-.098v5.505h-1.363ZM702.153 360.424l1.503-6.685h2.57l1.503 6.685h-1.362l-.267-1.208h-2.346l-.267 1.208h-1.362.028Zm2.556-5.562-.674 3.175h1.826l-.674-3.175h-.478ZM715.032 360.326a8.778 8.778 0 0 1-1.882.225c-.562 0-.997-.071-1.334-.211a1.644 1.644 0 0 1-.787-.66 2.997 2.997 0 0 1-.393-1.068 9.116 9.116 0 0 1-.113-1.53c0-1.293.183-2.191.548-2.697.365-.506 1.039-.758 2.009-.758a8.2 8.2 0 0 1 1.952.266l-.042 1.082c-.646-.098-1.194-.155-1.615-.155-.422 0-.731.057-.913.169-.183.112-.323.337-.408.646-.084.323-.126.871-.126 1.643 0 .773.084 1.306.267 1.601.182.295.533.45 1.081.45.548 0 1.11-.042 1.728-.141l.028 1.11v.028ZM719.933 360.424h-3.806v-6.685h1.362v5.491h2.444v1.194ZM722.028 358.191c0 .787.393 1.166 1.193 1.166.801 0 1.194-.393 1.194-1.166v-4.452h1.363v4.424c0 .815-.211 1.419-.632 1.812-.422.379-1.054.576-1.91.576-.857 0-1.489-.197-1.911-.576-.421-.379-.632-.983-.632-1.812v-4.424h1.363v4.452h-.028ZM727.153 353.739h2.626c.702 0 1.222.14 1.559.421.351.281.52.731.52 1.349 0 .379-.056.674-.169.884-.112.211-.295.408-.576.59.295.127.52.309.661.534.14.225.21.562.21.983 0 .646-.196 1.138-.576 1.447-.379.309-.913.477-1.601.477h-2.668v-6.685h.014Zm2.556 1.166h-1.194v1.587h1.208c.506 0 .772-.267.772-.801s-.252-.8-.772-.8l-.014.014Zm.042 2.738h-1.236v1.63h1.236c.295 0 .52-.057.646-.183.141-.112.211-.337.211-.646 0-.534-.295-.801-.871-.801h.014ZM628.964 322.615h-1.096v1.952h-1.362v-6.685h2.458c1.587 0 2.373.772 2.373 2.317 0 .787-.196 1.377-.604 1.798-.407.421-.997.618-1.769.618Zm-1.096-1.152h1.096c.674 0 1.011-.421 1.011-1.264 0-.407-.084-.702-.253-.884-.168-.183-.421-.267-.772-.267h-1.096v2.415h.014ZM636.928 323.851c-.421.548-1.138.829-2.149.829-1.011 0-1.728-.281-2.149-.829-.421-.548-.632-1.418-.632-2.598s.211-2.051.632-2.627c.421-.576 1.138-.856 2.149-.856 1.011 0 1.728.28 2.149.856.421.576.618 1.447.618 2.627 0 1.18-.211 2.05-.618 2.598Zm-3.245-.857c.197.337.562.52 1.082.52s.899-.169 1.081-.52c.197-.351.295-.927.295-1.727 0-.801-.098-1.405-.295-1.77-.196-.365-.561-.548-1.081-.548-.52 0-.885.183-1.082.548-.196.365-.295.955-.295 1.77 0 .814.099 1.39.295 1.727ZM640.958 324.567h-2.247v-6.685h2.247c.576 0 1.053.056 1.419.182.379.127.66.324.87.604.211.281.352.604.422.984.084.379.112.87.112 1.474s-.042 1.11-.112 1.503c-.07.393-.211.745-.407 1.068-.197.323-.492.533-.871.674-.379.14-.871.21-1.461.21l.028-.014Zm1.419-2.654c0-.211.014-.506.014-.871s0-.66-.042-.885a1.697 1.697 0 0 0-.183-.604.773.773 0 0 0-.435-.379c-.197-.07-.45-.098-.787-.098h-.899v4.326h.899c.492 0 .843-.127 1.068-.38.196-.196.309-.575.351-1.095l.014-.014ZM644.975 324.567v-6.685h1.362v6.685h-1.362ZM649.09 322.334c0 .787.393 1.166 1.194 1.166.801 0 1.194-.393 1.194-1.166v-4.452h1.362v4.424c0 .815-.211 1.419-.632 1.812-.421.379-1.053.576-1.91.576s-1.489-.197-1.91-.576c-.421-.379-.632-.983-.632-1.812v-4.424h1.362v4.452h-.028ZM654.217 324.567v-6.685h2.317l1.18 4.874 1.18-4.874h2.317v6.685h-1.362v-5.168h-.155l-1.306 4.873h-1.362l-1.306-4.873h-.141v5.168h-1.362ZM669.048 324.455a8.792 8.792 0 0 1-1.882.225c-.562 0-.998-.071-1.335-.211a1.637 1.637 0 0 1-.786-.66 3.019 3.019 0 0 1-.394-1.067 9.15 9.15 0 0 1-.112-1.531c0-1.293.183-2.191.548-2.697.365-.506 1.039-.759 2.008-.759.562 0 1.222.085 1.953.267l-.043 1.082c-.646-.098-1.193-.155-1.615-.155-.421 0-.73.057-.913.169-.182.112-.323.337-.407.646-.084.323-.126.871-.126 1.643 0 .773.084 1.306.266 1.601.183.295.534.45 1.082.45s1.109-.042 1.727-.141l.029 1.11v.028ZM673.964 324.567h-3.806v-6.685h1.363v5.492h2.443v1.193ZM676.043 322.334c0 .787.394 1.166 1.194 1.166.801 0 1.194-.393 1.194-1.166v-4.452h1.362v4.424c0 .815-.21 1.419-.632 1.812-.421.379-1.053.576-1.91.576s-1.489-.197-1.91-.576c-.421-.379-.632-.983-.632-1.812v-4.424h1.362v4.452h-.028ZM681.184 317.882h2.626c.703 0 1.222.14 1.559.421.351.281.52.731.52 1.349 0 .379-.056.674-.169.884-.112.211-.294.408-.575.59.295.127.519.309.66.534.14.225.21.562.21.983 0 .646-.196 1.138-.575 1.447-.38.309-.913.477-1.602.477h-2.668v-6.685h.014Zm2.556 1.152h-1.194v1.587h1.208c.506 0 .773-.267.773-.801s-.253-.8-.773-.8l-.014.014Zm.028 2.738h-1.236v1.63h1.236c.295 0 .52-.057.646-.183.141-.112.211-.337.211-.646 0-.534-.295-.801-.871-.801h.014ZM616.324 309.736v6.489h-1.362v-4.958l-1.405.899-.618-1.012 2.149-1.418h1.236ZM620.159 315.157c.871 0 1.306-.533 1.306-1.587l-.21.07c-.45.155-.801.225-1.026.225-.716 0-1.264-.168-1.657-.52-.393-.351-.576-.87-.576-1.545 0-.674.211-1.221.646-1.601.422-.379 1.025-.575 1.812-.575.786 0 1.376.294 1.798.87.407.576.618 1.447.618 2.585 0 1.137-.225 1.98-.688 2.486-.464.519-1.124.772-2.009.772-.506 0-1.053-.07-1.643-.211l-.309-.07.112-1.039c.674.098 1.278.154 1.826.154v-.014Zm.197-2.472c.295 0 .632-.056.969-.182l.154-.042c0-1.11-.365-1.658-1.095-1.658-.309 0-.562.085-.731.267-.168.169-.252.422-.252.73 0 .59.323.899.955.899v-.014ZM623.909 310.944v-1.208h4.143v1.531l-2.304 5.07-1.264-.351 2.206-4.733v-.309h-2.795.014ZM629.766 310.087c.422-.309.997-.463 1.714-.463.716 0 1.292.154 1.727.477.436.309.66.744.66 1.306 0 .379-.042.66-.14.857-.098.197-.281.407-.576.632.295.239.492.478.618.688.126.211.183.52.183.899 0 .646-.225 1.11-.689 1.419-.463.309-1.053.463-1.797.463-1.644 0-2.458-.59-2.458-1.77 0-.421.056-.744.196-.983.127-.238.338-.463.632-.716-.28-.225-.463-.435-.561-.66-.099-.211-.141-.492-.141-.843 0-.562.211-.997.632-1.306Zm.703 4.171c0 .576.337.871 1.011.871.674 0 1.011-.295 1.011-.871 0-.337-.197-.59-.576-.73h-.871c-.393.155-.59.393-.59.73h.015Zm1.025-3.427c-.295 0-.52.071-.674.197-.155.126-.239.337-.239.604 0 .267.154.52.477.73h.871c.323-.224.478-.477.478-.772 0-.506-.309-.773-.913-.773v.014ZM636.535 310.733v-1.194h4.916v1.194h-1.77v5.492h-1.362v-5.492h-1.784ZM642.307 316.225v-6.686h4.325v1.18h-2.963v1.559h2.374v1.166h-2.374v1.601h2.963v1.18h-4.325ZM649.105 313.992v2.247h-1.363v-6.686h2.599c1.573 0 2.359.731 2.359 2.205 0 .871-.323 1.517-.983 1.925l.955 2.556h-1.489l-.772-2.247h-1.306Zm1.98-1.461c.154-.197.239-.45.239-.773s-.085-.576-.253-.772c-.169-.183-.407-.281-.716-.281h-1.236v2.121h1.264c.323 0 .561-.099.716-.295h-.014ZM655.2 313.992v2.247h-1.362v-6.686h2.598c1.573 0 2.36.731 2.36 2.205 0 .871-.323 1.517-.983 1.925l.955 2.556h-1.489l-.773-2.247H655.2Zm1.981-1.461c.154-.197.238-.45.238-.773s-.084-.576-.252-.772c-.169-.183-.408-.281-.717-.281h-1.236v2.121h1.264c.323 0 .562-.099.717-.295h-.014ZM659.302 316.225l1.502-6.686h2.571l1.502 6.686h-1.362l-.267-1.208h-2.345l-.267 1.208h-1.363.029Zm2.556-5.562-.674 3.174h1.825l-.674-3.174h-.477ZM669.934 316.112a8.715 8.715 0 0 1-1.882.225c-.562 0-.997-.07-1.334-.211a1.644 1.644 0 0 1-.787-.66 3.018 3.018 0 0 1-.393-1.067 9.142 9.142 0 0 1-.112-1.531c0-1.292.182-2.191.548-2.697.365-.505 1.039-.758 2.008-.758.562 0 1.222.084 1.952.267l-.042 1.081c-.646-.098-1.194-.154-1.615-.154-.421 0-.73.056-.913.168-.183.113-.323.337-.407.646-.085.323-.127.871-.127 1.644 0 .772.085 1.306.267 1.601.183.295.534.449 1.082.449.547 0 1.109-.042 1.727-.14l.028 1.109v.028ZM671.029 316.225v-6.686h4.326v1.18h-2.963v1.559h2.373v1.166h-2.373v1.601h2.963v1.18h-4.326ZM592.364 326.758h1.432l-1.559 6.686h-2.514l-1.559-6.686h1.419l1.165 5.506h.436l1.165-5.506h.015ZM594.666 333.444v-6.686h1.362v6.686h-1.362ZM599.934 331.492h-1.095v1.952h-1.362v-6.686h2.457c1.588 0 2.374.773 2.374 2.318 0 .786-.197 1.376-.604 1.798-.407.421-.997.618-1.77.618Zm-1.095-1.152h1.095c.675 0 1.012-.422 1.012-1.264 0-.408-.085-.702-.253-.885-.169-.183-.421-.267-.773-.267h-1.095v2.416h.014ZM605.439 333.444v-6.686h4.27v1.18h-2.907v1.966h2.373v1.18h-2.373v2.36h-1.363ZM609.891 333.444l1.503-6.686h2.57l1.503 6.686h-1.362l-.267-1.208h-2.345l-.267 1.208h-1.363.028Zm2.557-5.562-.675 3.174h1.826l-.674-3.174h-.477ZM616.367 333.444v-6.686h2.29l1.615 5.506h.098v-5.506h1.362v6.686h-2.233l-1.671-5.506h-.098v5.506h-1.363ZM622.855 329.188l.464-2.43h1.39l-.828 2.43H622.855ZM627.73 327.812c-.716 0-1.068.239-1.068.702 0 .211.085.365.267.478.183.112.59.266 1.25.477.646.211 1.11.45 1.377.716.267.267.393.675.393 1.222 0 .703-.211 1.236-.646 1.587-.422.366-.983.534-1.672.534-.505 0-1.137-.084-1.882-.239l-.351-.07.141-1.053c.871.112 1.545.182 2.008.182.702 0 1.04-.295 1.04-.87a.582.582 0 0 0-.239-.492c-.169-.112-.478-.253-.955-.379-.759-.211-1.292-.478-1.601-.773-.309-.295-.464-.716-.464-1.236 0-.674.197-1.165.604-1.488.407-.324.969-.492 1.671-.492.492 0 1.096.07 1.854.197l.351.07-.112 1.067c-.927-.112-1.573-.154-1.952-.154l-.014.014ZM635.651 331.492h-1.095v1.952h-1.363v-6.686h2.458c1.587 0 2.374.773 2.374 2.318 0 .786-.197 1.376-.604 1.798-.407.421-.997.618-1.77.618Zm-1.109-1.152h1.095c.674 0 1.011-.422 1.011-1.264 0-.408-.084-.702-.252-.885-.169-.183-.422-.267-.773-.267h-1.095v2.416h.014ZM643.6 332.728c-.422.547-1.138.828-2.149.828-1.011 0-1.728-.281-2.149-.828-.421-.548-.632-1.419-.632-2.599 0-1.18.211-2.05.632-2.626.421-.576 1.138-.857 2.149-.857 1.011 0 1.727.281 2.149.857.421.576.618 1.446.618 2.626s-.211 2.051-.618 2.599Zm-3.231-.857c.197.337.562.519 1.082.519.519 0 .899-.168 1.081-.519.197-.351.295-.927.295-1.728 0-.8-.098-1.404-.295-1.769-.196-.366-.562-.548-1.081-.548-.52 0-.885.182-1.082.548-.196.365-.295.955-.295 1.769 0 .815.099 1.391.295 1.728ZM647.646 333.444h-2.248v-6.686h2.248c.575 0 1.053.057 1.418.183.379.126.66.323.871.604.211.281.351.604.421.983.085.379.113.871.113 1.475 0 .604-.042 1.109-.113 1.503-.07.393-.21.744-.407 1.067-.197.323-.492.534-.871.674-.379.141-.871.211-1.46.211l.028-.014Zm1.418-2.655c0-.21.014-.505.014-.871 0-.365 0-.66-.042-.884a1.665 1.665 0 0 0-.183-.604.767.767 0 0 0-.435-.379c-.197-.071-.449-.099-.786-.099h-.899v4.326h.899c.491 0 .842-.126 1.067-.379.197-.197.309-.576.351-1.096l.014-.014ZM651.662 333.444v-6.686h1.362v6.686h-1.362ZM655.778 331.211c0 .786.393 1.165 1.193 1.165.801 0 1.194-.393 1.194-1.165v-4.453h1.363v4.425c0 .814-.211 1.418-.632 1.811-.422.38-1.054.576-1.91.576-.857 0-1.489-.196-1.911-.576-.421-.379-.632-.983-.632-1.811v-4.425h1.363v4.453h-.028ZM660.902 333.444v-6.686h2.318l1.18 4.874 1.179-4.874h2.318v6.686h-1.363v-5.169h-.154l-1.306 4.874h-1.363l-1.306-4.874h-.14v5.169h-1.363ZM673.558 327.812c-.716 0-1.067.239-1.067.702 0 .211.084.365.266.478.183.112.59.266 1.25.477.646.211 1.11.45 1.377.716.267.267.393.675.393 1.222 0 .703-.211 1.236-.646 1.587-.421.366-.983.534-1.671.534-.506 0-1.138-.084-1.882-.239l-.352-.07.141-1.053c.871.112 1.545.182 2.008.182.703 0 1.04-.295 1.04-.87a.582.582 0 0 0-.239-.492c-.169-.112-.478-.253-.955-.379-.759-.211-1.292-.478-1.601-.773-.309-.295-.464-.716-.464-1.236 0-.674.197-1.165.604-1.488.407-.324.969-.492 1.672-.492.491 0 1.095.07 1.853.197l.352.07-.113 1.067c-.927-.112-1.573-.154-1.952-.154l-.014.014ZM678.151 331.211c0 .786.393 1.165 1.193 1.165.801 0 1.194-.393 1.194-1.165v-4.453h1.363v4.425c0 .814-.211 1.418-.632 1.811-.422.38-1.054.576-1.91.576-.857 0-1.489-.196-1.911-.576-.421-.379-.632-.983-.632-1.811v-4.425h1.363v4.453h-.028ZM683.277 333.444v-6.686h1.363v6.686h-1.363ZM685.496 327.952v-1.194h4.916v1.194h-1.77v5.492h-1.362v-5.492h-1.784ZM691.268 333.444v-6.686h4.325v1.18h-2.963v1.559h2.374v1.166h-2.374v1.601h2.963v1.18h-4.325ZM543.837 303.879a8.73 8.73 0 0 1-1.882.225c-.562 0-.998-.07-1.335-.211a1.637 1.637 0 0 1-.786-.66 3 3 0 0 1-.393-1.067 9.032 9.032 0 0 1-.113-1.531c0-1.293.183-2.191.548-2.697.365-.506 1.039-.758 2.008-.758.562 0 1.222.084 1.953.266l-.043 1.082c-.646-.098-1.193-.155-1.615-.155-.421 0-.73.057-.913.169-.182.112-.323.337-.407.646-.084.323-.126.871-.126 1.643 0 .773.084 1.306.266 1.601.183.295.534.45 1.082.45s1.11-.042 1.727-.141l.029 1.11v.028ZM547.658 301.59v-1.18h1.952v3.469c-.941.154-1.7.225-2.276.225-1.039 0-1.755-.281-2.148-.829-.394-.548-.59-1.447-.59-2.654 0-1.208.196-2.093.604-2.627.407-.534 1.095-.8 2.078-.8.604 0 1.264.07 1.981.21l.351.07-.042 1.054a19.007 19.007 0 0 0-1.939-.127c-.505 0-.856.057-1.053.183-.197.112-.351.337-.449.66-.099.323-.141.857-.141 1.629 0 .773.098 1.307.281 1.616.197.309.59.463 1.18.463l.814-.042v-1.292h-.603v-.028ZM554.426 297.306h1.433l-1.559 6.685h-2.514l-1.559-6.685h1.418l1.166 5.506h.435l1.166-5.506h.014ZM558.893 303.991v-6.685h4.325v1.18h-2.963v1.559h2.374v1.165h-2.374v1.602h2.963v1.179h-4.325ZM565.214 297.306l1.236 2.458 1.264-2.458h1.404l-1.924 3.413 1.924 3.272h-1.503l-1.236-2.303-1.264 2.303h-1.404l1.924-3.202-1.924-3.483h1.503ZM572.39 302.039h-1.096v1.952h-1.362v-6.685h2.458c1.587 0 2.373.772 2.373 2.317 0 .787-.196 1.377-.604 1.798-.407.421-.997.618-1.769.618Zm-1.096-1.152h1.096c.674 0 1.011-.421 1.011-1.264 0-.407-.084-.702-.253-.884-.169-.183-.421-.267-.773-.267h-1.095v2.415h.014ZM575.732 303.991v-6.685h4.326v1.18h-2.963v1.559h2.373v1.165h-2.373v1.602h2.963v1.179h-4.326ZM582.53 301.744v2.247h-1.362v-6.685h2.598c1.573 0 2.36.73 2.36 2.205 0 .871-.323 1.517-.983 1.924l.955 2.556h-1.489l-.772-2.247h-1.307Zm1.981-1.446c.154-.197.238-.45.238-.773s-.084-.576-.252-.772c-.169-.183-.408-.281-.717-.281h-1.236v2.12h1.264c.323 0 .562-.098.717-.294h-.014ZM587.264 303.991v-6.685h1.362v6.685h-1.362ZM590.086 303.991v-6.685h4.326v1.18h-2.964v1.559h2.374v1.165h-2.374v1.602h2.964v1.179h-4.326ZM595.521 303.991v-6.685h2.29l1.615 5.506h.098v-5.506h1.363v6.685h-2.233l-1.672-5.505h-.098v5.505h-1.363ZM606.575 303.879a8.715 8.715 0 0 1-1.882.225c-.562 0-.997-.07-1.334-.211a1.639 1.639 0 0 1-.787-.66 3 3 0 0 1-.393-1.067 9.138 9.138 0 0 1-.113-1.531c0-1.293.183-2.191.548-2.697.365-.506 1.04-.758 2.009-.758a8.2 8.2 0 0 1 1.952.266l-.042 1.082c-.646-.098-1.194-.155-1.615-.155-.422 0-.731.057-.913.169-.183.112-.323.337-.408.646-.084.323-.126.871-.126 1.643 0 .773.084 1.306.267 1.601.182.295.533.45 1.081.45.548 0 1.11-.042 1.728-.141l.028 1.11v.028ZM607.686 303.991v-6.685h4.325v1.18h-2.963v1.559h2.374v1.165h-2.374v1.602h2.963v1.179h-4.325ZM504.399 281.365h-1.095v1.952h-1.363v-6.685h2.458c1.587 0 2.374.772 2.374 2.317 0 .787-.197 1.377-.604 1.798-.407.421-.997.618-1.77.618Zm-1.095-1.166h1.095c.674 0 1.012-.421 1.012-1.264 0-.407-.085-.702-.253-.885-.169-.182-.422-.267-.773-.267h-1.095v2.416h.014ZM509.091 281.07v2.247h-1.362v-6.685h2.598c1.573 0 2.359.73 2.359 2.205 0 .871-.323 1.517-.983 1.924l.955 2.556h-1.488l-.773-2.247h-1.306Zm1.98-1.461c.155-.196.239-.449.239-.772s-.084-.576-.253-.773c-.168-.182-.407-.281-.716-.281h-1.236v2.121h1.264c.323 0 .562-.098.716-.295h-.014ZM513.824 283.317v-6.685h1.363v6.685h-1.363ZM520.256 276.632h1.433l-1.559 6.685h-2.514l-1.559-6.685h1.418l1.166 5.505h.435l1.166-5.505h.014ZM522.574 283.317v-6.685h1.363v6.685h-1.363ZM529.189 283.317h-3.806v-6.685h1.362v5.491h2.444v1.194ZM530.018 283.317v-6.685h4.325v1.18h-2.963v1.559h2.374v1.165h-2.374v1.601h2.963v1.18h-4.325Zm1.039-9.298 2.472 1.04-.323.913-2.556-.773.407-1.18ZM538.191 280.916v-1.18h1.952v3.469c-.941.154-1.699.225-2.275.225-1.04 0-1.756-.281-2.149-.829-.393-.548-.59-1.447-.59-2.655 0-1.207.197-2.092.604-2.626.407-.534 1.095-.801 2.079-.801.603 0 1.264.071 1.98.211l.351.07-.042 1.054a18.722 18.722 0 0 0-1.938-.127c-.506 0-.857.056-1.054.183-.196.112-.351.337-.449.66-.099.323-.141.857-.141 1.629 0 .773.099 1.306.281 1.615.197.309.59.464 1.18.464l.815-.042v-1.292h-.604v-.028ZM541.408 283.317v-6.685h4.326v1.18h-2.963v1.559h2.373v1.165h-2.373v1.601h2.963v1.18h-4.326ZM552.404 276.828v6.489h-1.362v-4.958l-1.404.899-.618-1.011 2.148-1.419h1.236ZM554.485 278.036v-1.208h4.143v1.531l-2.303 5.071-1.264-.352 2.205-4.733v-.309h-2.795.014ZM405.902 324.904v-1.193h4.916v1.193h-1.77v5.492h-1.362v-5.492h-1.784ZM416.24 329.68c-.421.548-1.137.828-2.149.828-1.011 0-1.727-.28-2.148-.828-.422-.548-.632-1.419-.632-2.599 0-1.179.21-2.05.632-2.626.421-.576 1.137-.857 2.148-.857 1.012 0 1.728.281 2.149.857.422.576.618 1.447.618 2.626 0 1.18-.21 2.051-.618 2.599Zm-3.244-.871c.197.337.562.52 1.081.52.52 0 .899-.169 1.082-.52.196-.351.295-.927.295-1.728 0-.8-.099-1.404-.295-1.769-.197-.365-.562-.548-1.082-.548-.519 0-.884.183-1.081.548-.197.365-.295.955-.295 1.769 0 .815.098 1.391.295 1.728ZM419.315 328.149c0 .786.393 1.166 1.194 1.166.8 0 1.193-.394 1.193-1.166v-4.452h1.363v4.424c0 .814-.211 1.418-.632 1.812-.422.379-1.054.575-1.91.575-.857 0-1.489-.196-1.91-.575-.422-.38-.633-.984-.633-1.812v-4.424h1.363v4.452h-.028ZM424.441 330.382v-6.685h2.29l1.615 5.505h.098v-5.505h1.363v6.685h-2.234l-1.671-5.506h-.098v5.506h-1.363ZM433.515 330.382h-2.247v-6.685h2.247c.576 0 1.053.056 1.418.182.38.127.66.323.871.604.211.281.351.604.421.983.085.379.113.871.113 1.475 0 .604-.042 1.11-.113 1.503-.07.393-.21.744-.407 1.067-.196.323-.491.534-.871.674-.379.141-.87.211-1.46.211l.028-.014Zm1.418-2.654c0-.211.014-.506.014-.871s0-.66-.042-.885a1.69 1.69 0 0 0-.182-.604.772.772 0 0 0-.436-.379c-.196-.071-.449-.099-.786-.099h-.899v4.326h.899c.491 0 .842-.126 1.067-.379.197-.197.309-.576.351-1.095l.014-.014ZM438.894 328.149v2.247h-1.363v-6.685h2.599c1.573 0 2.359.73 2.359 2.205 0 .87-.323 1.517-.983 1.924l.955 2.556h-1.489l-.772-2.247h-1.306Zm1.966-1.461c.154-.196.239-.449.239-.772s-.085-.576-.253-.773c-.169-.182-.407-.281-.716-.281h-1.236v2.121h1.264c.323 0 .561-.098.716-.295h-.014ZM442.995 330.382l1.503-6.685h2.57l1.503 6.685h-1.363l-.266-1.208h-2.346l-.267 1.208h-1.362.028Zm2.556-5.562-.674 3.174h1.826l-.674-3.174h-.478ZM369.468 307.222h-3.806v-6.686h1.362v5.492h2.444v1.194ZM369.749 307.222l1.503-6.686h2.57l1.503 6.686h-1.363l-.267-1.208h-2.345l-.267 1.208h-1.362.028Zm2.556-5.562-.674 3.174h1.826l-.674-3.174h-.478ZM377.84 307.91v-1.18c.267 0 .449-.056.576-.154.126-.099.182-.281.182-.548v-5.492h1.349v5.562c0 .717-.155 1.194-.464 1.447-.323.253-.857.379-1.629.379l-.014-.014ZM380.788 307.222l1.503-6.686h2.57l1.503 6.686h-1.363l-.267-1.208h-2.345l-.267 1.208h-1.362.028Zm2.556-5.562-.674 3.174h1.826l-.674-3.174h-.478ZM387.277 307.222v-6.686h2.318l1.18 4.874 1.179-4.874h2.318v6.686h-1.363v-5.169h-.154l-1.306 4.874h-1.363l-1.306-4.874h-.14v5.169h-1.363ZM395.143 307.222l1.503-6.686h2.57l1.503 6.686h-1.362l-.267-1.208h-2.346l-.266 1.208h-1.363.028Zm2.557-5.562-.675 3.174h1.826l-.674-3.174h-.477ZM400.621 299.722v-1.292h1.264v1.292h-1.264Zm1.011 7.5v-6.686h1.363v6.686h-1.363Zm1.096-7.5v-1.292h1.264v1.292h-1.264ZM406.911 307.348c-1.025 0-1.741-.281-2.148-.828-.408-.548-.618-1.419-.618-2.599 0-1.18.21-2.064.632-2.64.421-.576 1.137-.857 2.148-.857 1.012 0 1.728.281 2.149.857.422.576.618 1.46.618 2.64 0 1.461-.351 2.43-1.025 2.936l.815 1.32-1.236.576-.885-1.447s-.211.028-.436.028l-.014.014Zm-1.081-1.699c.197.337.562.505 1.081.505.52 0 .899-.168 1.082-.505.197-.337.295-.913.295-1.728 0-.814-.098-1.404-.295-1.769-.197-.366-.562-.548-1.082-.548-.519 0-.884.182-1.081.548-.197.365-.295.955-.295 1.769 0 .815.098 1.391.295 1.728ZM412.151 305.003c0 .786.393 1.165 1.194 1.165.8 0 1.193-.393 1.193-1.165v-4.453h1.363v4.425c0 .814-.211 1.418-.632 1.811-.422.38-1.054.576-1.91.576-.857 0-1.489-.196-1.911-.576-.421-.379-.632-.983-.632-1.811v-4.425h1.363v4.453h-.028ZM417.277 307.222v-6.686h4.326v1.18h-2.963v1.559h2.373v1.166h-2.373v1.601h2.963v1.18h-4.326ZM70.746 114.805v-1.194h4.916v1.194h-1.77v5.492H72.53v-5.492h-1.784ZM76.52 120.283v-6.686h4.325v1.18h-2.963v1.559h2.373v1.166h-2.373v1.601h2.963v1.18H76.52ZM83.316 118.049v2.248h-1.363v-6.686h2.599c1.572 0 2.359.731 2.359 2.205 0 .871-.323 1.517-.983 1.924l.955 2.557h-1.489l-.772-2.248h-1.306Zm1.98-1.46c.154-.197.239-.45.239-.773s-.085-.576-.253-.772c-.169-.183-.407-.281-.716-.281h-1.237v2.121h1.265c.323 0 .561-.099.716-.295h-.014ZM89.411 118.049v2.248H88.05v-6.686h2.598c1.573 0 2.36.731 2.36 2.205 0 .871-.323 1.517-.983 1.924l.955 2.557h-1.49l-.772-2.248h-1.306Zm1.98-1.46c.155-.197.24-.45.24-.773s-.085-.576-.254-.772c-.168-.183-.407-.281-.716-.281h-1.236v2.121h1.264c.323 0 .562-.099.717-.295h-.015ZM93.513 120.283l1.502-6.686h2.57l1.503 6.686h-1.362l-.267-1.208h-2.345l-.267 1.208h-1.363.029Zm2.556-5.562-.675 3.174h1.826l-.674-3.174h-.477ZM104.145 120.184a8.715 8.715 0 0 1-1.882.225c-.562 0-.997-.07-1.334-.211a1.644 1.644 0 0 1-.787-.66 3.018 3.018 0 0 1-.393-1.067 9.116 9.116 0 0 1-.112-1.531c0-1.292.182-2.191.547-2.697.366-.505 1.04-.758 2.009-.758.562 0 1.222.084 1.952.267l-.042 1.081c-.646-.098-1.194-.154-1.615-.154-.421 0-.73.056-.913.168-.183.113-.323.337-.407.646-.085.323-.127.871-.127 1.644 0 .772.084 1.306.267 1.601.183.295.534.449 1.082.449.547 0 1.109-.042 1.727-.14l.028 1.109v.028ZM105.24 120.283v-6.686h4.326v1.18h-2.963v1.559h2.373v1.166h-2.373v1.601h2.963v1.18h-4.326ZM116.983 120.283h-4.213v-1.152l1.39-1.405c.492-.505.829-.884 1.025-1.165.197-.267.295-.548.295-.857 0-.309-.084-.52-.239-.646-.168-.127-.393-.183-.688-.183-.435 0-.913.042-1.432.113l-.239.028-.07-1.054a6.808 6.808 0 0 1 1.994-.295c1.376 0 2.065.618 2.065 1.854 0 .492-.113.899-.309 1.264-.211.351-.59.787-1.138 1.293l-1.124 1.025h2.697v1.18h-.014ZM121.744 113.794v6.489h-1.362v-4.958l-1.405.899-.618-1.012 2.149-1.418h1.236ZM8.315 96.63a8.748 8.748 0 0 1-1.882.226c-.562 0-.997-.07-1.334-.211a1.643 1.643 0 0 1-.787-.66 3.01 3.01 0 0 1-.393-1.068 9.115 9.115 0 0 1-.112-1.53c0-1.293.182-2.192.547-2.697.366-.506 1.04-.759 2.009-.759.562 0 1.222.085 1.952.267l-.042 1.082c-.646-.099-1.194-.155-1.615-.155-.422 0-.73.056-.913.169-.183.112-.323.337-.407.646-.085.323-.127.87-.127 1.643s.084 1.306.267 1.601c.183.295.534.45 1.081.45.548 0 1.11-.043 1.728-.14l.028 1.109v.028ZM13.988 96.027c-.421.548-1.137.829-2.149.829-1.01 0-1.727-.281-2.148-.83-.422-.547-.632-1.418-.632-2.597 0-1.18.21-2.051.632-2.627.421-.576 1.137-.857 2.148-.857 1.012 0 1.728.281 2.15.857.42.576.617 1.447.617 2.626 0 1.18-.21 2.051-.618 2.599Zm-3.244-.857c.197.337.562.52 1.082.52s.898-.169 1.08-.52c.198-.351.296-.927.296-1.727 0-.801-.098-1.405-.295-1.77-.197-.365-.562-.548-1.082-.548s-.884.183-1.081.548c-.197.365-.295.955-.295 1.77 0 .814.098 1.39.295 1.727ZM17.824 91.125c-.717 0-1.068.239-1.068.702 0 .211.084.366.267.478.183.112.59.267 1.25.477.646.211 1.11.45 1.376.717.267.267.394.674.394 1.222 0 .702-.211 1.236-.646 1.587-.422.365-.983.533-1.672.533-.505 0-1.137-.084-1.882-.238l-.35-.07.14-1.054c.87.112 1.544.183 2.008.183.702 0 1.04-.295 1.04-.871a.58.58 0 0 0-.24-.492c-.168-.112-.477-.253-.954-.379-.759-.21-1.293-.477-1.602-.772-.309-.295-.463-.717-.463-1.236 0-.675.196-1.166.604-1.49.407-.322.969-.49 1.671-.49.492 0 1.096.07 1.854.196l.351.07-.112 1.068c-.927-.113-1.573-.155-1.952-.155l-.014.014ZM21.11 96.743v-6.685h2.317l1.18 4.873 1.18-4.873h2.317v6.685H26.74v-5.168h-.154l-1.306 4.873h-1.363l-1.306-4.873h-.14v5.168h-1.363ZM34.172 96.027c-.421.548-1.138.829-2.149.829-1.011 0-1.727-.281-2.149-.83-.421-.547-.632-1.418-.632-2.597 0-1.18.21-2.051.632-2.627.422-.576 1.138-.857 2.15-.857 1.01 0 1.727.281 2.148.857.421.576.618 1.447.618 2.626 0 1.18-.21 2.051-.618 2.599Zm-3.23-.857c.196.337.561.52 1.081.52.52 0 .899-.169 1.082-.52.196-.351.295-.927.295-1.727 0-.801-.099-1.405-.295-1.77-.197-.365-.562-.548-1.082-.548s-.885.183-1.081.548c-.197.365-.295.955-.295 1.77 0 .814.098 1.39.295 1.727ZM38.02 91.125c-.716 0-1.067.239-1.067.702 0 .211.085.366.267.478.183.112.59.267 1.25.477.646.211 1.11.45 1.377.717.267.267.393.674.393 1.222 0 .702-.21 1.236-.646 1.587-.422.365-.983.533-1.672.533-.505 0-1.137-.084-1.881-.238l-.352-.07.14-1.054c.872.112 1.546.183 2.01.183.702 0 1.039-.295 1.039-.871 0-.21-.085-.38-.24-.492-.168-.112-.477-.253-.954-.379-.759-.21-1.292-.477-1.601-.772-.31-.295-.464-.717-.464-1.236 0-.675.197-1.166.604-1.49.407-.322.97-.49 1.671-.49.492 0 1.096.07 1.854.196l.352.07-.113 1.068c-.927-.113-1.573-.155-1.952-.155l-.014.014ZM15.758 108.429a8.776 8.776 0 0 1-1.882.224c-.561 0-.997-.07-1.334-.21a1.646 1.646 0 0 1-.786-.66 3.016 3.016 0 0 1-.394-1.068 9.105 9.105 0 0 1-.112-1.531c0-1.292.183-2.191.548-2.696.365-.506 1.04-.759 2.008-.759.562 0 1.222.084 1.953.267l-.043 1.081c-.646-.098-1.193-.154-1.615-.154-.421 0-.73.056-.913.168-.182.113-.323.338-.407.647-.084.323-.127.87-.127 1.643 0 .772.085 1.306.267 1.601.183.295.534.449 1.082.449s1.11-.042 1.727-.14l.028 1.11v.028ZM20.66 108.541h-3.806v-6.685h1.362v5.491h2.444v1.194ZM22.754 106.308c0 .786.393 1.166 1.194 1.166.8 0 1.194-.394 1.194-1.166v-4.452h1.362v4.424c0 .814-.21 1.418-.632 1.812-.421.379-1.053.575-1.91.575s-1.489-.196-1.91-.575c-.421-.38-.632-.984-.632-1.812v-4.424h1.362v4.452h-.028ZM27.88 101.856h2.626c.702 0 1.222.14 1.559.421.35.281.52.73.52 1.348 0 .379-.057.674-.17.885-.111.211-.294.407-.575.59.295.126.52.309.66.534.14.224.21.561.21.983 0 .646-.196 1.137-.575 1.446-.38.309-.913.478-1.601.478h-2.669v-6.685h.014Zm2.556 1.165h-1.194v1.587h1.207c.506 0 .773-.266.773-.8s-.253-.801-.773-.801l-.014.014Zm.042 2.725h-1.236v1.629h1.236c.295 0 .52-.056.646-.182.14-.113.21-.337.21-.646 0-.534-.295-.801-.87-.801h.014ZM832.253 266.547h-1.096v1.953h-1.362v-6.686h2.458c1.587 0 2.373.773 2.373 2.318 0 .786-.196 1.376-.604 1.797-.407.422-.997.618-1.769.618Zm-1.096-1.151h1.096c.674 0 1.011-.422 1.011-1.264 0-.408-.084-.703-.253-.885-.168-.183-.421-.267-.772-.267h-1.096v2.416h.014ZM836.944 266.253v2.247h-1.362v-6.686h2.598c1.573 0 2.36.731 2.36 2.205 0 .871-.323 1.517-.983 1.925l.955 2.556h-1.489l-.772-2.247h-1.307Zm1.981-1.447c.154-.197.238-.45.238-.773s-.084-.575-.252-.772c-.169-.183-.408-.281-.717-.281h-1.236v2.121h1.265c.323 0 .561-.099.716-.295h-.014ZM841.678 268.5v-6.686h1.362v6.686h-1.362ZM848.11 261.814h1.432l-1.559 6.686h-2.514l-1.559-6.686h1.419l1.165 5.506h.436l1.166-5.506h.014ZM850.428 268.5v-6.686h1.362v6.686h-1.362ZM857.042 268.5h-3.806v-6.686h1.363v5.492h2.443v1.194ZM857.871 268.5v-6.686h4.326v1.18h-2.964v1.559h2.374v1.166h-2.374v1.601h2.964v1.18h-4.326Zm1.053-9.284 2.472 1.039-.323.913-2.556-.772.407-1.18ZM866.044 266.098v-1.18h1.952v3.469c-.941.155-1.699.225-2.275.225-1.039 0-1.755-.281-2.149-.829-.393-.547-.59-1.446-.59-2.654s.197-2.093.604-2.627c.408-.533 1.096-.8 2.079-.8.604 0 1.264.07 1.98.211l.351.07-.042 1.053a18.93 18.93 0 0 0-1.938-.126c-.506 0-.857.056-1.053.182-.197.113-.351.337-.45.661-.098.323-.14.856-.14 1.629 0 .772.098 1.306.281 1.615.196.309.59.463 1.18.463l.814-.042v-1.292h-.604v-.028ZM869.275 268.5v-6.686h4.326v1.18h-2.963v1.559h2.373v1.166h-2.373v1.601h2.963v1.18h-4.326ZM802.983 249.96a8.715 8.715 0 0 1-1.882.225c-.562 0-.997-.07-1.334-.211a1.644 1.644 0 0 1-.787-.66 3.018 3.018 0 0 1-.393-1.067 9.142 9.142 0 0 1-.112-1.531c0-1.292.182-2.191.547-2.697.366-.505 1.04-.758 2.009-.758.562 0 1.222.084 1.952.267l-.042 1.081c-.646-.098-1.194-.154-1.615-.154-.422 0-.731.056-.913.168-.183.113-.323.337-.407.646-.085.323-.127.871-.127 1.644 0 .772.084 1.306.267 1.601.183.295.534.449 1.081.449.548 0 1.11-.042 1.728-.14l.028 1.109v.028ZM806.804 247.671v-1.18h1.952v3.469c-.941.155-1.699.225-2.275.225-1.039 0-1.756-.281-2.149-.829-.393-.547-.59-1.446-.59-2.654s.197-2.093.604-2.627c.408-.533 1.096-.8 2.079-.8.604 0 1.264.07 1.98.211l.351.07-.042 1.053a18.93 18.93 0 0 0-1.938-.126c-.506 0-.857.056-1.053.182-.197.113-.352.337-.45.66-.098.323-.14.857-.14 1.63 0 .772.098 1.306.281 1.615.196.309.589.463 1.179.463l.815-.042v-1.292h-.604v-.028ZM813.572 243.373h1.433l-1.559 6.686h-2.514l-1.559-6.686h1.419l1.165 5.506h.436l1.166-5.506h.013ZM817.449 244.581v-1.194h4.916v1.194h-1.77v5.492h-1.362v-5.492h-1.784ZM823.223 250.059v-6.686h4.325v1.18h-2.963v1.559h2.374v1.166h-2.374v1.601h2.963v1.18h-4.325ZM830.021 247.825v2.248h-1.363v-6.686h2.598c1.574 0 2.36.731 2.36 2.205 0 .871-.323 1.517-.983 1.924l.955 2.557h-1.489l-.772-2.248h-1.306Zm1.98-1.46c.154-.197.239-.45.239-.773s-.085-.576-.253-.772c-.169-.183-.407-.281-.716-.281h-1.236v2.121h1.264c.323 0 .561-.099.716-.295h-.014ZM836.114 247.825v2.248h-1.362v-6.686h2.598c1.573 0 2.36.731 2.36 2.205 0 .871-.323 1.517-.983 1.924l.955 2.557h-1.489l-.772-2.248h-1.307Zm1.981-1.46c.154-.197.238-.45.238-.773s-.084-.576-.252-.772c-.169-.183-.408-.281-.717-.281h-1.236v2.121h1.264c.323 0 .562-.099.717-.295h-.014ZM840.216 250.059l1.502-6.686h2.571l1.502 6.686h-1.362l-.267-1.208h-2.345l-.267 1.208h-1.362.028Zm2.556-5.562-.674 3.174h1.826l-.675-3.174h-.477ZM850.848 249.96a8.715 8.715 0 0 1-1.882.225c-.562 0-.997-.07-1.334-.211a1.644 1.644 0 0 1-.787-.66 3.018 3.018 0 0 1-.393-1.067 9.142 9.142 0 0 1-.112-1.531c0-1.292.182-2.191.548-2.697.365-.505 1.039-.758 2.008-.758.562 0 1.222.084 1.952.267l-.042 1.081c-.646-.098-1.194-.154-1.615-.154-.421 0-.73.056-.913.168-.183.113-.323.337-.407.646-.084.323-.127.871-.127 1.644 0 .772.085 1.306.267 1.601.183.295.534.449 1.082.449.547 0 1.109-.042 1.727-.14l.028 1.109v.028ZM851.943 250.059v-6.686h4.326v1.18h-2.963v1.559h2.373v1.166h-2.373v1.601h2.963v1.18h-4.326Z"/><path fill="#89898E" d="m582.58 250.133-5.746 12.815 39.434 17.681 5.746-12.815-39.434-17.681ZM473.771 330.122l-17.199 33.465 12.492 6.42 17.199-33.465-12.492-6.42ZM500.381 318.781l-6.475 12.458 25.731 13.132 6.474-12.458-25.73-13.132ZM777.433 291.871a6.3 6.3 0 0 0 6.292-6.293 6.3 6.3 0 0 0-6.292-6.292 6.3 6.3 0 0 0-6.292 6.292 6.3 6.3 0 0 0 6.292 6.293Z" opacity=".2"/><path fill="#89898E" d="M767.953 287.713a6.283 6.283 0 0 0 7.051-5.421 6.277 6.277 0 0 0-5.422-7.051 6.296 6.296 0 0 0-7.064 5.422c-.464 3.455 1.966 6.601 5.421 7.064l.014-.014ZM741.491 357.236a6.3 6.3 0 0 0 6.293-6.292 6.3 6.3 0 0 0-6.293-6.292 6.3 6.3 0 0 0-6.292 6.292 6.3 6.3 0 0 0 6.292 6.292ZM699.273 319.736a6.3 6.3 0 0 0 6.292-6.292 6.3 6.3 0 0 0-6.292-6.292 6.3 6.3 0 0 0-6.293 6.292 6.3 6.3 0 0 0 6.293 6.292ZM688.599 311.969a6.3 6.3 0 0 0 6.292-6.292 6.3 6.3 0 0 0-6.292-6.292 6.3 6.3 0 0 0-6.292 6.292 6.3 6.3 0 0 0 6.292 6.292ZM710.046 327.405a6.3 6.3 0 0 0 6.292-6.293 6.3 6.3 0 0 0-6.292-6.292 6.3 6.3 0 0 0-6.292 6.292 6.3 6.3 0 0 0 6.292 6.293ZM458.218 332.517a6.3 6.3 0 0 0 6.292-6.292 6.3 6.3 0 0 0-6.292-6.293 6.3 6.3 0 0 0-6.292 6.293 6.3 6.3 0 0 0 6.292 6.292ZM855.425 285.621a6.3 6.3 0 0 0 6.292-6.293 6.3 6.3 0 0 0-6.292-6.292 6.3 6.3 0 0 0-6.292 6.292 6.3 6.3 0 0 0 6.292 6.293ZM247.421 216.065l-14.042.307.729 33.391 14.041-.307-.728-33.391Z" opacity=".2"/><path fill="#7D7D7D" d="M25.519 15.112 11.254 46.457l12.783 5.818L38.302 20.93 25.52 15.112Z"/><path fill="#89898E" d="m50.601 74.384-5.386 12.971 41.378 17.182 5.386-12.972-41.378-17.181ZM63.7 5.496l-4.854 13.18 58.688 21.616 4.854-13.18L63.7 5.496ZM177.755 41.807l-3.398 13.628 50.573 12.61 3.398-13.628-50.573-12.61ZM166.253 80.093l-5.118 13.08 18.285 7.154 5.118-13.079-18.285-7.155ZM595.259 196.359l-5.245 13.029 110.079 44.319 5.246-13.029-110.08-44.319ZM723.121 326.699l-4.758 6.956 16.833 11.513 4.757-6.956-16.832-11.513ZM215.051 95.29l-3.231 13.669 19.109 4.517 3.231-13.668-19.109-4.517ZM833.024 371.674l-9.537-10.309 18.048-16.713 9.537 10.309-18.048 16.713Zm-1.77 1.658-9.536-10.309-18.048 16.713 9.537 10.309 18.047-16.713ZM833.037 314.82l-11.475-21.77 12.43-6.545 11.475 21.77-12.43 6.545Zm25.029 17.36-11.475-21.77-12.43 6.545 11.475 21.77 12.43-6.545Z" opacity=".2"/><path fill="#89898E" d="M826.339 306.955a6.3 6.3 0 0 0 6.292-6.292 6.3 6.3 0 0 0-6.292-6.292 6.3 6.3 0 0 0-6.292 6.292 6.3 6.3 0 0 0 6.292 6.292Z" opacity=".2"/><path fill="#fff" d="M826.339 307.306a6.647 6.647 0 0 1-6.644-6.643 6.647 6.647 0 0 1 6.644-6.643 6.647 6.647 0 0 1 6.643 6.643 6.647 6.647 0 0 1-6.643 6.643Zm0-12.584a5.951 5.951 0 0 0-5.941 5.941 5.952 5.952 0 0 0 5.941 5.941 5.953 5.953 0 0 0 5.941-5.941 5.952 5.952 0 0 0-5.941-5.941Z"/><path fill="#7D7D7D" d="m678.29 292.868-39.438-17.683-5.745 12.809 3.54 1.587c.941-2.542 3.356-4.354 6.208-4.354a6.648 6.648 0 0 1 6.643 6.644c0 1.137-.309 2.177-.815 3.118l23.863 10.702 5.744-12.809v-.014Z"/><path fill="#89898E" d="M648.794 291.871c0 1.025-.281 1.98-.744 2.823-1.011 1.84-2.95 3.104-5.197 3.104-3.272 0-5.941-2.655-5.941-5.927 0-.703.155-1.377.379-1.995a5.9 5.9 0 0 1 5.562-3.946 5.942 5.942 0 0 1 5.941 5.941ZM574.357 280.199a5.825 5.825 0 0 1-.745 2.823c-1.011 1.84-2.949 3.104-5.196 3.104-3.273 0-5.941-2.654-5.941-5.927 0-.702.154-1.376.379-1.994a5.897 5.897 0 0 1 5.562-3.947 5.944 5.944 0 0 1 5.941 5.941ZM433.134 310.284a6.3 6.3 0 0 0 6.292-6.293 6.3 6.3 0 0 0-6.292-6.292 6.3 6.3 0 0 0-6.292 6.292 6.3 6.3 0 0 0 6.292 6.293ZM96.896 107.923a6.3 6.3 0 0 0 6.292-6.292 6.3 6.3 0 0 0-6.292-6.292 6.3 6.3 0 0 0-6.293 6.292 6.3 6.3 0 0 0 6.293 6.292ZM36.193 81.715a6.3 6.3 0 0 0 6.292-6.292 6.3 6.3 0 0 0-6.292-6.292 6.3 6.3 0 0 0-6.293 6.292 6.3 6.3 0 0 0 6.293 6.292Z" opacity=".2"/><path fill="#7D7D7D" d="M630.48 274.174v9.733h-2.036v-7.43l-2.107 1.363-.927-1.517 3.216-2.135h1.854v-.014ZM565.734 249.469v9.733h-2.036v-7.43l-2.107 1.362-.927-1.516 3.216-2.135h1.854v-.014ZM575.13 251.295c-.997-.141-1.868-.225-2.613-.225-1.39 0-2.092.758-2.092 2.275l.309-.084c.646-.183 1.165-.281 1.545-.281 1.109 0 1.952.253 2.514.772.562.506.842 1.307.842 2.388 0 1.082-.309 1.896-.941 2.444-.632.548-1.545.829-2.738.829-1.194 0-2.093-.436-2.711-1.307-.604-.87-.913-2.148-.913-3.834 0-1.685.351-2.935 1.053-3.736.703-.8 1.7-1.208 3.006-1.208.773 0 1.587.113 2.458.323l.463.099-.182 1.559v-.014Zm-3.02 3.441a4.56 4.56 0 0 0-1.446.252l-.253.071c0 1.699.547 2.556 1.657 2.556.478 0 .829-.127 1.096-.393.252-.267.379-.632.379-1.096 0-.927-.478-1.39-1.433-1.39ZM853.53 297.994v11.124h-2.332v-8.497l-2.416 1.545-1.067-1.742 3.68-2.444h2.12l.015.014ZM863.221 309.118h-7.219v-1.966l2.374-2.416c.842-.871 1.432-1.531 1.755-1.995.337-.463.492-.955.492-1.474 0-.52-.141-.885-.408-1.11-.28-.21-.66-.323-1.165-.323-.759 0-1.573.07-2.458.197l-.407.056-.113-1.798a11.636 11.636 0 0 1 3.427-.505c2.36 0 3.54 1.067 3.54 3.188 0 .828-.183 1.545-.534 2.163-.365.604-1.011 1.348-1.952 2.205l-1.939 1.755h4.621v2.023h-.014ZM839.106 376.702v11.124h-2.332v-8.497l-2.416 1.545-1.067-1.742 3.68-2.444h2.121l.014.014ZM847.533 376.702v11.124h-2.331v-8.497l-2.416 1.545-1.067-1.742 3.68-2.444h2.12l.014.014ZM213.33 228.71c.898-.351 1.91-.534 3.033-.534 1.124 0 1.925.211 2.444.646.506.422.773 1.11.773 2.051 0 .941-.38 1.671-1.138 2.163.478.253.815.52 1.011.801.197.28.309.716.309 1.306 0 1.053-.267 1.84-.786 2.345-.534.506-1.377.773-2.528.773-.857 0-1.756-.127-2.697-.379l-.478-.113.099-1.545c1.095.183 2.022.281 2.767.281 1.011 0 1.516-.435 1.516-1.292 0-.365-.126-.66-.393-.871-.267-.211-.604-.323-1.025-.323h-1.966v-1.685h1.966c.323 0 .618-.141.857-.408.238-.266.379-.575.379-.912 0-.703-.492-1.054-1.461-1.054-.674 0-1.404.07-2.163.211l-.379.056-.126-1.503-.014-.014ZM226.842 228.359v9.733h-2.037v-7.43l-2.107 1.363-.927-1.517 3.217-2.135h1.854v-.014ZM469.173 315.382c.899-.351 1.91-.534 3.034-.534 1.124 0 1.924.211 2.444.646.506.422.772 1.11.772 2.051 0 .941-.379 1.671-1.137 2.163.477.253.814.52 1.011.8.197.281.309.717.309 1.307 0 1.053-.267 1.839-.787 2.345-.533.506-1.376.773-2.528.773-.856 0-1.755-.127-2.696-.38l-.478-.112.099-1.545c1.095.183 2.022.281 2.766.281 1.012 0 1.517-.435 1.517-1.292 0-.365-.126-.66-.393-.871-.267-.211-.604-.323-1.025-.323h-1.967v-1.685h1.967c.323 0 .618-.141.856-.408.239-.267.38-.576.38-.913 0-.702-.492-1.053-1.461-1.053-.674 0-1.405.07-2.163.211l-.379.056-.127-1.503-.014-.014ZM477.431 315.382c.899-.351 1.91-.534 3.034-.534 1.123 0 1.924.211 2.444.646.505.422.772 1.11.772 2.051 0 .941-.379 1.671-1.137 2.163.477.253.814.52 1.011.8.196.281.309.717.309 1.307 0 1.053-.267 1.839-.787 2.345-.533.506-1.376.773-2.528.773-.857 0-1.755-.127-2.696-.38l-.478-.112.098-1.545c1.096.183 2.023.281 2.767.281 1.011 0 1.517-.435 1.517-1.292 0-.365-.126-.66-.393-.871-.267-.211-.604-.323-1.026-.323h-1.966v-1.685h1.966c.324 0 .618-.141.857-.408s.379-.576.379-.913c0-.702-.491-1.053-1.46-1.053-.674 0-1.405.07-2.163.211l-.379.056-.127-1.503-.014-.014ZM511.73 310.227c.899-.351 1.91-.533 3.034-.533 1.123 0 1.924.21 2.444.646.505.421.772 1.109.772 2.05 0 .941-.379 1.672-1.138 2.163.478.253.815.52 1.012.801.196.281.309.716.309 1.306 0 1.053-.267 1.84-.787 2.346-.534.505-1.376.772-2.528.772-.857 0-1.756-.126-2.697-.379l-.477-.113.098-1.544c1.096.182 2.023.28 2.767.28 1.011 0 1.517-.435 1.517-1.292 0-.365-.127-.66-.393-.871-.267-.21-.604-.323-1.026-.323h-1.966v-1.685h1.966c.323 0 .618-.14.857-.407.239-.267.379-.576.379-.913 0-.702-.491-1.054-1.46-1.054-.675 0-1.405.071-2.163.211l-.38.056-.126-1.503-.014-.014ZM526.351 319.61h-6.306v-1.728l2.079-2.107c.744-.758 1.25-1.334 1.545-1.741.294-.408.435-.829.435-1.292 0-.464-.127-.773-.365-.97-.239-.182-.576-.28-1.026-.28-.66 0-1.376.056-2.148.182l-.352.042-.098-1.573a10.209 10.209 0 0 1 2.992-.435c2.064 0 3.09.927 3.09 2.781 0 .73-.155 1.362-.478 1.882-.309.533-.885 1.18-1.713 1.938l-1.7 1.531h4.045v1.77ZM5.07 20.282v9.733H3.034v-7.43L.927 23.948 0 22.43l3.216-2.135H5.07v-.014ZM14.381 20.282v1.77h-4.354l-.252 2.107a4.753 4.753 0 0 1 1.741-.352c2.107 0 3.16.984 3.16 2.936 0 1.095-.295 1.952-.87 2.556-.576.604-1.405.899-2.458.899-.45 0-.97-.042-1.545-.127a10.552 10.552 0 0 1-1.377-.28l-.533-.127.224-1.503c1.194.183 2.177.281 2.978.281.477 0 .857-.126 1.11-.379.252-.253.379-.618.379-1.095 0-.478-.113-.83-.323-1.04-.211-.21-.52-.323-.913-.323-.66 0-1.236.07-1.742.197l-.225.056-1.208-.28.267-5.268h5.941v-.028ZM98.806 13.414H92.5v-1.727l2.079-2.107c.744-.759 1.25-1.335 1.545-1.742.295-.407.435-.828.435-1.292 0-.463-.126-.772-.365-.97-.239-.182-.576-.28-1.025-.28-.66 0-1.377.056-2.15.183l-.35.042-.099-1.573c.97-.295 1.967-.436 2.992-.436 2.064 0 3.09.927 3.09 2.781 0 .73-.155 1.363-.478 1.882-.309.534-.885 1.18-1.713 1.938l-1.7 1.531h4.045v1.77ZM104.508 13.414v-1.601h-4.129v-1.545l2.402-6.573h2.247l-2.613 6.362h2.093V7.333h2.037v2.724h.927v1.77h-.927v1.601h-2.037v-.014ZM56.49 109.103h-6.306v-1.728l2.078-2.106c.745-.759 1.25-1.335 1.545-1.742.295-.407.436-.829.436-1.292 0-.464-.127-.773-.366-.969-.238-.183-.575-.281-1.025-.281-.66 0-1.376.056-2.149.182l-.35.042-.1-1.573c.97-.294 1.967-.435 2.992-.435 2.065 0 3.09.927 3.09 2.781 0 .73-.154 1.362-.477 1.882-.31.534-.885 1.18-1.714 1.938l-1.7 1.531h4.046v1.77ZM63.639 99.37v9.733h-2.037v-7.43l-2.107 1.362-.927-1.517 3.217-2.134h1.854v-.014ZM199.453 44.06v-1.6h-4.129v-1.546l2.402-6.573h2.247l-2.612 6.363h2.092v-2.725h2.037v2.725h.927v1.77h-.927v1.6h-2.037v-.014ZM210.31 36.139c-.998-.14-1.868-.225-2.613-.225-1.39 0-2.093.759-2.093 2.276l.309-.085c.646-.182 1.166-.28 1.545-.28 1.11 0 1.953.252 2.514.772.562.505.843 1.306.843 2.387 0 1.082-.309 1.896-.941 2.444-.632.548-1.545.829-2.739.829-1.193 0-2.092-.435-2.71-1.306-.604-.871-.913-2.15-.913-3.849 0-1.699.351-2.935 1.053-3.736.702-.8 1.7-1.207 3.006-1.207.772 0 1.587.112 2.458.323l.463.098-.182 1.559Zm-3.02 3.455c-.464 0-.941.084-1.447.253l-.253.07c0 1.7.548 2.556 1.658 2.556.477 0 .828-.126 1.095-.393.253-.267.379-.632.379-1.096 0-.927-.477-1.39-1.432-1.39ZM147.459 80.184c.898-.351 1.91-.534 3.033-.534 1.124 0 1.924.211 2.444.646.506.422.773 1.11.773 2.051 0 .941-.38 1.671-1.138 2.163.477.253.815.52 1.011.8.197.281.309.717.309 1.307 0 1.053-.267 1.84-.786 2.345-.534.506-1.377.773-2.528.773-.857 0-1.756-.127-2.697-.38l-.478-.112.099-1.545c1.095.183 2.022.281 2.767.281 1.011 0 1.516-.435 1.516-1.292 0-.365-.126-.66-.393-.87-.267-.211-.604-.324-1.025-.324H148.4v-1.685h1.966c.323 0 .618-.14.857-.408.238-.266.379-.575.379-.913 0-.702-.492-1.053-1.461-1.053-.674 0-1.404.07-2.163.21l-.379.057-.126-1.503-.014-.014ZM158.934 89.566v-1.6h-4.129V86.42l2.401-6.573h2.248l-2.613 6.362h2.093v-2.724h2.036v2.724h.927v1.77h-.927v1.601h-2.036v-.014ZM237.909 116.336v-1.601h-4.13v-1.545l2.402-6.573h2.247l-2.612 6.362h2.093v-2.725h2.036v2.725h.927v1.77h-.927v1.601h-2.036v-.014ZM242.459 108.415v-1.812h6.222v2.303l-3.469 7.613-1.882-.534 3.314-7.093v-.477h-4.185ZM638.108 211.266v-10.028h3.469l1.77 7.318 1.769-7.318h3.469v10.028h-2.036v-7.753h-.225l-1.966 7.318h-2.037l-1.966-7.318h-.225v7.753h-2.036.014ZM649.92 211.266l2.261-10.028h3.863l2.261 10.028h-2.037l-.393-1.811h-3.511l-.394 1.811h-2.05Zm3.834-8.342-1.011 4.761h2.739l-1.012-4.761h-.716ZM659.639 211.266v-10.028h2.036v10.028h-2.036ZM663.867 211.266v-10.028h3.441l2.416 8.259h.154v-8.259h2.037v10.028h-3.343l-2.514-8.258h-.154v8.258h-2.037ZM680.411 202.839c-1.067 0-1.601.351-1.601 1.068 0 .309.126.561.393.716.267.169.885.407 1.868.716.983.309 1.658.674 2.051 1.068.393.393.59 1.011.59 1.84 0 1.053-.323 1.854-.955 2.387-.646.548-1.475.815-2.5.815-.773 0-1.7-.113-2.823-.351l-.534-.099.211-1.573c1.32.183 2.331.267 3.019.267 1.04 0 1.559-.435 1.559-1.292a.854.854 0 0 0-.365-.73c-.239-.183-.716-.365-1.433-.576-1.137-.323-1.938-.716-2.415-1.152-.464-.449-.703-1.067-.703-1.868 0-.997.309-1.755.913-2.247.604-.492 1.447-.73 2.514-.73.731 0 1.658.098 2.767.295l.534.098-.169 1.601c-1.39-.154-2.359-.239-2.935-.239l.014-.014ZM684.441 203.036v-1.798h7.374v1.798h-2.654v8.23h-2.037v-8.23h-2.683ZM695.13 207.91v3.356h-2.036v-10.028h3.89c2.36 0 3.54 1.096 3.54 3.301 0 1.306-.492 2.275-1.475 2.893l1.432 3.834h-2.219l-1.165-3.356h-1.967Zm2.978-2.177c.239-.295.351-.689.351-1.166 0-.478-.126-.871-.379-1.152-.253-.281-.618-.421-1.082-.421h-1.854v3.188h1.882c.478 0 .843-.14 1.082-.449ZM701.283 211.266l2.261-10.028h3.863l2.261 10.028h-2.036l-.394-1.811h-3.511l-.393 1.811H701.283Zm3.835-8.342-1.012 4.761h2.739l-1.011-4.761h-.716ZM711.002 211.266v-10.028h2.036v10.028h-2.036ZM719.401 207.671v-1.77h2.922v5.211c-1.405.225-2.543.337-3.427.337-1.559 0-2.641-.421-3.217-1.25-.59-.829-.87-2.163-.87-3.975 0-1.812.309-3.132.912-3.932.604-.801 1.644-1.208 3.119-1.208.912 0 1.896.098 2.963.309l.534.098-.057 1.573c-1.179-.126-2.148-.197-2.893-.197-.744 0-1.278.085-1.587.267-.309.183-.534.506-.674.983-.14.478-.211 1.293-.211 2.444 0 1.152.141 1.966.422 2.43.281.463.87.688 1.769.688l1.222-.056v-1.952h-.927ZM730.005 211.266v-4.157h-3.736v4.157h-2.037v-10.028h2.037v4.101h3.736v-4.101h2.036v10.028h-2.036ZM733.318 203.036v-1.798h7.374v1.798h-2.655v8.23h-2.036v-8.23h-2.683ZM670.678 345.944h-1.657v2.921h-2.037v-10.028h3.68c2.374 0 3.568 1.166 3.568 3.483 0 1.166-.309 2.065-.913 2.697-.604.632-1.489.941-2.655.941l.014-.014Zm-1.657-1.742h1.643c1.011 0 1.517-.632 1.517-1.882 0-.618-.126-1.067-.365-1.334-.253-.267-.632-.407-1.152-.407h-1.643v3.623ZM681.38 348.865h-5.702v-10.028h2.036v8.231h3.68v1.797h-.014ZM681.787 348.865l2.261-10.028h3.863l2.261 10.028h-2.037l-.393-1.811h-3.511l-.393 1.811H681.787Zm3.834-8.342-1.011 4.761h2.739l-1.011-4.761h-.717ZM690.061 340.635v-1.798h7.373v1.798h-2.654v8.23h-2.037v-8.23h-2.682ZM698.727 348.865v-10.028h2.036v10.028h-2.036ZM702.939 348.865v-10.028h3.441l2.416 8.259h.155v-8.259h2.036v10.028h-3.343l-2.514-8.258h-.154v8.258h-2.037ZM713.164 348.865v-10.028h6.489v1.77h-4.452v2.345h3.567v1.742h-3.567v2.402h4.452v1.769h-6.489Z"/><path stroke="#000" stroke-miterlimit="10" stroke-width=".702" d="m642.839 293.219-28.792 6.812M688.598 307.152l-4.803 6.292-5.871.154M700.213 314.539l-4.79 6.292-7.696.197M710.607 322.587l-6.11 8.006-7.247.168M766.295 265.873l1.643 12.964M790.468 282.32l-10.689 3.174M819.695 253.626v35.843l6.63 11.194M36.193 75.437 21.657 82.67l-.085 4.523"/></svg>